<?xml version="1.0" encoding="UTF-8" standalone="no"?>
<svg
   xmlns:dc="http://purl.org/dc/elements/1.1/"
   xmlns:cc="http://creativecommons.org/ns#"
   xmlns:rdf="http://www.w3.org/1999/02/22-rdf-syntax-ns#"
   xmlns:svg="http://www.w3.org/2000/svg"
   xmlns="http://www.w3.org/2000/svg"
   xmlns:sodipodi="http://sodipodi.sourceforge.net/DTD/sodipodi-0.dtd"
   xmlns:inkscape="http://www.inkscape.org/namespaces/inkscape"
   id="Calque_1"
   data-name="Calque 1"
   viewBox="0 0 289.6377 499.7336"
   version="1.1"
   sodipodi:docname="logo.svg"
   width="289.6377"
   height="499.73358"
   inkscape:version="0.92.5 (2060ec1f9f, 2020-04-08)">
  <metadata
     id="metadata4079">
    <rdf:RDF>
      <cc:Work
         rdf:about="">
        <dc:format>image/svg+xml</dc:format>
        <dc:type
           rdf:resource="http://purl.org/dc/dcmitype/StillImage" />
      </cc:Work>
    </rdf:RDF>
  </metadata>
  <sodipodi:namedview
     pagecolor="#ffffff"
     bordercolor="#666666"
     borderopacity="1"
     objecttolerance="10"
     gridtolerance="10"
     guidetolerance="10"
     inkscape:pageopacity="0"
     inkscape:pageshadow="2"
     inkscape:window-width="2560"
     inkscape:window-height="1386"
     id="namedview4077"
     showgrid="false"
     inkscape:zoom="1.4429579"
     inkscape:cx="144.88583"
     inkscape:cy="85.595179"
     inkscape:window-x="3840"
     inkscape:window-y="26"
     inkscape:window-maximized="1"
     inkscape:current-layer="Calque_1" />
  <defs
     id="defs3918">
    <style
       id="style3916">.cls-1{fill:#00693b;}.cls-1,.cls-10,.cls-11,.cls-2,.cls-3,.cls-4,.cls-5,.cls-6,.cls-7,.cls-8,.cls-9{stroke:#1d1d1b;fill-rule:evenodd;}.cls-1,.cls-10,.cls-11,.cls-12,.cls-13,.cls-2,.cls-3,.cls-4,.cls-5,.cls-6,.cls-7,.cls-8,.cls-9{stroke-miterlimit:10;}.cls-2{fill:#4a671e;}.cls-3{fill:#6a912d;}.cls-4{fill:#2d440f;}.cls-5{fill:#607849;}.cls-15,.cls-6{fill:none;}.cls-7{fill:#008a3b;}.cls-8{fill:#a68955;}.cls-9{fill:#a5b370;}.cls-10{fill:#8fa82e;}.cls-11{fill:#1d1d1b;}.cls-12,.cls-14{fill:#ac5734;}.cls-12,.cls-13{stroke:#993415;}.cls-13{fill:#993415;}</style>
  </defs>
  <path
     class="cls-1"
     d="m 164.33084,251.85841 c 2.19,2 14.95,4.34 13.92,10.08 7.76,0.16 15.41,-2.21 10.08,-8.17 -2.79,-2.85 7.24,-2.83 8.88,-1.67 -0.74,0.58 -0.28,1 0.24,1.44 -0.47,-3.48 0.41,2.85 2.16,3.12 14.51,-1.42 5.15,6.91 7.44,11.52 6.65,3.22 -3.33,7 9.6,9.12 4.56,-3.56 5.38,1.66 9.36,2.4 -0.8,-3 0.09,-5.62 1.2,-6 a 68,68 0 0 1 15.36,0.48 c 4.87,-2.64 15.88,-4.87 15.84,1.19 a 1943.11,1943.11 0 0 0 -0.46,199.17 q 0.33,6.75 0.7,13.48 c 2,-3.1 2.45,-2.19 3.84,-5.52 0.74,0.25 0.76,-0.49 0.48,0 -1.09,-0.92 2.12,-3 2.88,-1 0.77,0.89 -1,4 -1.2,6 -1.73,0.78 0.8,-0.1 -0.24,1.2 -0.79,0.32 1.2,0.82 2.4,1.44 0.85,2 0,3.7 2.16,2.4 2,-6.27 6,-11.73 5.52,-1.92 4.65,-4.61 2.85,-14.77 7,-14.4 2.12,1.54 -2.6,11 1.92,11.52 1.35,0.85 0.82,3.25 1.2,3.36 1.48,1.42 1.25,-7.2 4.08,-6.72 2.24,5 -4.64,15.64 -6.24,10.08 -7.36,3.42 -1.79,-0.24 -3.36,-7 0,2.35 -9.11,16.67 -7.92,5.76 -3.21,3.73 -4.17,2.33 -5.76,1.68 -1.61,-2.67 -1.25,2 -3.12,1.92 -4.91,-1.2 3.39,-11.93 -3.84,-5 -4.37,7.81 -4,-10.2 -6.72,1 -1.64,-0.85 0.36,2.23 -3.12,1.2 -2.53,-6.95 -3.26,4 -7,0.48 -1.63,-3.84 -1,0.92 -3.12,1 0.67,-0.79 -1.45,-1.73 -0.72,-0.24 a 6.81,6.81 0 0 1 0,-4.56 c 1.18,0.73 -0.81,-1.16 0.48,-1.44 -0.71,-0.06 -0.61,-0.27 0,-0.24 1.21,0.38 -0.65,-2.5 -0.72,-2.4 0.06,2.12 -1.57,2.73 -1.92,3.12 1.47,0.19 -1.17,2.47 -1.2,2.88 -0.3,0.08 0.09,2.15 -0.72,2.88 -3.69,2.26 -1.88,-4.45 -2.88,-6.24 -2.51,2.06 -0.68,5 -2.64,6.24 -0.56,-1.85 0.56,0.49 -1,0.24 -1.12,-0.72 -1.94,-2.78 0,-1.68 -4,-2.45 -1.25,-4.47 -5.52,-7.68 0.59,3.25 -2,10.43 -3.12,7.92 -3.55,1.17 0.72,-4.89 -2.64,-6.24 -0.45,2.87 -0.58,3.08 -2.4,5.76 -0.66,-0.86 0,1.64 -2.16,1.2 -0.63,-1.16 -0.81,-1.51 -1,-0.48 -3.44,4 -3.2,-3 -3.6,-3.12 -0.29,1.22 -1.42,-3.35 -1.68,-0.72 -0.71,-0.86 -1,0.06 -0.48,0.48 1.34,-0.79 -2,6 -2.88,3.84 0.61,-0.6 0.49,-0.38 -0.24,-0.48 0.6,0.19 0,0.7 -0.48,0.48 -2.54,-2.45 -1.74,1.18 -4.08,1 -1.55,-0.43 -5.22,-1.73 -6.72,-0.49 -2.42,1.19 -1.37,1.13 -3.12,-1.43 -0.75,2.42 -2.76,0.58 -4.08,0 -0.52,1.71 -2.33,2.64 -3.12,1.2 -0.86,1 -3.38,-3.7 -3.36,-0.72 0.4,-0.64 0.19,0.78 -0.72,1.2 1.87,-0.4 -0.29,0.8 0.24,0.72 -5,1.91 -6.27,-10.33 -8.16,-8.16 1,0.32 -0.63,3.6 -0.48,3.12 0.55,-0.05 0.07,1 -0.48,1.2 -0.1,-0.28 -0.27,-1.13 -0.48,-0.48 0.5,0.8 0.47,2.24 -0.72,2.4 0,0.6 -1.29,-0.47 -0.24,1 -0.6,-0.55 -1.53,0 -0.24,0 -3.21,2.26 -0.85,-6.38 -3.6,-2.4 -0.41,-0.58 -0.7,-0.8 -1.2,-0.24 2.1,-0.17 -0.67,3.16 -2.16,1.68 -0.2,-4 -1,0.12 -3.12,1.2 -1.77,1.55 -0.25,-7 -1.44,-7 -1.35,2 -2.18,3.33 -1.92,3.61 -2.38,4.35 -4.31,1.32 -2.4,-2.4 0.57,-3.2 -3.86,12.36 -6,4.32 -7.16,8 -3.8,-3.05 -6.48,1.92 -3.85,-0.66 0.5,-5.9 -5.52,0.24 -1.53,0.48 0,-8.51 -1,-7.68 -0.53,1.46 -1,0.19 -1.44,0.48 1.71,2.86 -1.76,2.27 -0.72,4.8 -1.16,-0.49 0.56,2.71 -2.16,2.4 -1.41,-1.09 -1,-0.08 -2.16,0.48 -0.35,-1.48 0.08,-0.27 -0.48,-0.24 -1.48,-1.8 -0.43,-3.53 -3.6,-1.44 0.55,2.67 -2.4,0.29 -1.2,1.2 1.64,0.49 0.67,0.94 -0.72,1 -1.79,-1.6 -1.48,-3.9 -2.4,-2.16 -0.79,-1.54 -0.16,2.82 -3.12,-1.44 0,2.29 -2.47,4.8 -2.64,1.68 -3.49,4.15 -4.33,2.41 -3.84,-3.36 -0.63,-0.09 -8.000004,12.75 -7.000004,0.47 -1.18,1 -1.46,3.73 -1.68,1.21 -1.64,0.19 0.06,0.93 0,2.16 -2.92,3.57 -4.2,4 -6.72,-1.44 -3.32,8.16 -4.83,-1.46 -5.52,-3.6 -3.09,3.51 -4.65,6.58 -7,8.16 -2.42,-0.7 -0.94,-3.61 -1.44,-5.76 -1.27,3.26 -2.48,6.08 -5.52,4.8 -1.58,-7.57 -4.69,3.22 -6.48,-1.2 -1,0 -0.08,-7.27 -0.24,-7.2 -0.51,-0.43 -1.3,0.76 -1.68,0.72 -4,12.56 -5.42,-1.77 -7.2,2.64 1.35,-0.37 0.15,0.68 -0.24,1.2 1,-1 0.84,2.25 -1.68,2.16 -1.34,-0.44 -0.63,-5.54 -2.88,-6.24 0.43,2.64 -4,10.18 -6,3.84 -1.24,3.43 -4.36,3 -4.56,1 1.31,-1.77 -0.1,0.28 -0.72,-0.72 -1.8,7.27 -4.47,-0.31 -3.84,-5 -2.84,-0.72 0.15,3.51 -2.88,5.76 -1.36,2.08 0.84,5.1 -3.84,1 -5.44,9.28 -5.19,-13.88 -8.64,-9.12 1.63,1.08 2.58,13.26 -0.24,11.52 -3.72,-1.41 -2.55,-7.55 -5.76,-7.92 a 1.18,1.18 0 0 1 0,2.16 c 0.69,-0.31 1.52,1.92 1,2.4 -0.54,-1.54 0.13,4.73 -1.44,2.64 -0.74,0.13 -0.61,-0.09 -0.72,0.72 -2.65,-1.4 -1.48,-4 -4.0800005,-5.28 -0.82,4.24 -2.41,5.33 -5.76,2.15 -6.74,7.78 1.65,-17.16 1.44,-2.63 3.19,5.54 -0.49,-8.52 4.08,-6 1.15,3.56 2.0000005,3.4 3.3600005,6.72 1.9,-1.39 -4.5500005,-11.68 1,-9.84 2.46,1.33 2.43,5.44 4.8,6.24 1.25,-4.27 -7.39,-19.94 2.64,-9.36 0.34,0.38 2.53,3.24 3.6,4.56 a 1.52,1.52 0 0 0 0.46,1.27 c 1.31,0.85 5.12,-2.85 6.37,-4.07 6,-5.86 2,-123.08 -1.5,-205.06 a 80.14,80.14 0 0 0 8.19,-0.38 c 2.65,-0.25 5.11,-0.62 7.36,-1 2.72,-0.88 9.86,-1.27 10.32,0.48 4,-2.16 6.4,2.38 5.76,6.72 2.14,-1 1.48,-0.91 3.12,-1 -3.34,-4.39 13.22,-0.31 12,-6 1.53,-1.52 3.87,-2.55 2.88,-4.56 -1.34,0 0.49,-4.66 1.68,-4.08 -1.18,-5.45 -5.38,-13.18 2.16,-15.85 4.39,0.27 14.81,8.07 14.4,-2.87 0.64,-14.21 -9.45,-3 -9.6,-10.8 -2,-9.06 8.65,-4.67 14.160004,-3.12 5.05,1.15 6.92,9.82 12.24,8.4 4.2,-2.94 9.1,1.48 11,5 1.41,-2.31 4.22,-4 6,-1 0.62,-0.87 2.64,-0.46 1.92,0.48 1.12,-0.67 8.87,0.46 9.12,1.68 3.36,5.43 4.82,1.12 11,2.16 7.74,6.42 4.19,1.35 11.24,0.31 z"
     id="path3920"
     inkscape:connector-curvature="0"
     style="fill:#00693b;fill-rule:evenodd;stroke:#1d1d1b;stroke-miterlimit:10" />
  <path
     class="cls-2"
     d="m 92.390836,239.06841 c 4.1,-0.07 10.460004,0.33 7.920004,6.72 1.79,6.64 3.72,8.79 2.88,14.64 1.7,8.2 -8.240004,10.46 -5.000004,17.28 1.53,6.08 2.710004,-3.22 3.840004,-3.12 10.81,-3.14 4.3,-18.72 3.12,-26.88 2.86,-2.42 5.28,5.31 5.28,7.92 0.43,-1.88 3.42,3.1 1.92,2.88 2.63,0 4.3,3.13 4.56,-0.72 0.84,2.12 0.23,-8.36 2.16,-5.76 0.4,-2.67 0.84,-1.39 3.6,-1.92 2.77,0.91 -4.2,-5 -5.28,-3.36 -2.55,2.48 -5.75,0.15 -7.44,-0.24 -2.94,-6.32 -18.560004,-14.23 -17.560004,-7.44 z"
     id="path3922"
     inkscape:connector-curvature="0"
     style="fill:#4a671e;fill-rule:evenodd;stroke:#1d1d1b;stroke-miterlimit:10" />
  <path
     class="cls-3"
     d="m 124.55084,253.22841 c -4.6,-1.18 -4.07,1.46 -4.56,4.8 1.74,0.19 3.4,-2.6 4.56,-4.8 z"
     id="path3924"
     inkscape:connector-curvature="0"
     style="fill:#6a912d;fill-rule:evenodd;stroke:#1d1d1b;stroke-miterlimit:10" />
  <path
     class="cls-4"
     d="m 100.55084,254.66841 c -1.330004,2.13 -2.180004,2.93 -3.840004,3.36 -0.93,0.51 -5,1.4 -3.84,0 -1.06,0.59 -1.27,0.35 -0.48,-0.48 -1.22,0.67 -0.94,0.89 -1,0 -1.18,1.41 -2.52,-2 -3.6,-1 -4.22,-3.24 -5.24,0.9 -4.8,5.52 2.66,2.26 -0.56,1.3 0.72,2.64 5.02,-7.88 20.090004,4.72 16.840004,-10.04 z"
     id="path3926"
     inkscape:connector-curvature="0"
     style="fill:#2d440f;fill-rule:evenodd;stroke:#1d1d1b;stroke-miterlimit:10" />
  <path
     class="cls-5"
     d="m 195.11084,255.42841 c -2.61,1 -1.53,5.48 -1.92,6.72 -1.2,3.23 -3.44,2.25 -1.68,4.8 -1.63,-0.73 0.13,1 1.2,1.44 3.29,-0.77 1.71,-0.83 4.56,-0.24 0.82,0.88 1.23,5.91 0,4.56 -1.08,0.67 -0.57,0.54 0,0.72 -0.31,1.7 2.5,1.82 1.68,0.48 2.77,-0.06 3.22,-3.57 6.72,-4.08 a 4.3,4.3 0 0 0 -1.44,-3.12 c -0.38,-4.51 6.34,-3.93 0.24,-6.72 -2.2,2.3 -3.5,3.28 -6.72,-1 -0.75,0.11 -0.45,-3.71 -2.64,-3.56 z"
     id="path3928"
     inkscape:connector-curvature="0"
     style="fill:#607849;fill-rule:evenodd;stroke:#1d1d1b;stroke-miterlimit:10" />
  <path
     class="cls-6"
     d="m 109.91084,255.62841 c -0.08,0.33 0.34,0.35 0.48,0.48 0.17,-0.26 -0.41,-0.41 -0.48,-0.48 z"
     id="path3930"
     inkscape:connector-curvature="0"
     style="fill:none;fill-rule:evenodd;stroke:#1d1d1b;stroke-miterlimit:10" />
  <path
     class="cls-7"
     d="m 165.39084,255.62841 c 0.07,0.78 -1.16,0.85 -1.2,0.24 -0.69,1.63 -1.52,4 -1.92,3.84 -1.95,1.08 2.39,6.39 4.8,3.36 0.53,0.68 -0.56,0.64 -0.48,1.44 0.63,-0.37 1.39,-0.06 0.24,-0.72 2.08,-0.58 5.28,1.81 3.84,-0.24 12.49,-1.95 -1.58,-4.53 -5.28,-7.92 z"
     id="path3932"
     inkscape:connector-curvature="0"
     style="fill:#008a3b;fill-rule:evenodd;stroke:#1d1d1b;stroke-miterlimit:10" />
  <path
     class="cls-6"
     d="m 110.63084,255.86841 0.72,0.72 c 0.13,-0.3 -0.6,-0.59 -0.72,-0.72 z"
     id="path3934"
     inkscape:connector-curvature="0"
     style="fill:none;fill-rule:evenodd;stroke:#1d1d1b;stroke-miterlimit:10" />
  <path
     class="cls-6"
     d="m 80.390836,257.54841 a 9.21,9.21 0 0 0 0.48,1 c 0.21,-0.31 -0.3,-0.79 -0.48,-1 z"
     id="path3936"
     inkscape:connector-curvature="0"
     style="fill:none;fill-rule:evenodd;stroke:#1d1d1b;stroke-miterlimit:10" />
  <path
     class="cls-6"
     d="m 89.270836,270.98841 c -0.55,-3.5 0.65,-4.18 3.84,-6 -1.74,-1.35 -3.8,-0.72 -4.8,-1.68 0.1,2.34 -1.65,1.83 -1.2,3.12 -2.31,4.13 -3.51,5.94 2.16,4.56 z"
     id="path3938"
     inkscape:connector-curvature="0"
     style="fill:none;fill-rule:evenodd;stroke:#1d1d1b;stroke-miterlimit:10" />
  <path
     class="cls-2"
     d="m 184.31084,275.54841 c -0.54,0.61 -2.23,1.45 -2.4,0.72 -3.31,6.63 -9.49,2.13 -13.68,6 -3,11.32 3.83,-0.67 8.16,3.12 0.88,-2.63 2.88,-5.4 5.52,-4.08 -2.58,-1 9.77,-5.07 2.4,-5.76 z"
     id="path3940"
     inkscape:connector-curvature="0"
     style="fill:#4a671e;fill-rule:evenodd;stroke:#1d1d1b;stroke-miterlimit:10" />
  <path
     class="cls-6"
     d="m 231.11084,295.42841 c 17.76,0.43 28.77,2.47 25,-18.72 -24.21,4.31 -26.2,-7.35 -25,18.72 z"
     id="path3942"
     inkscape:connector-curvature="0"
     style="fill:none;fill-rule:evenodd;stroke:#1d1d1b;stroke-miterlimit:10" />
  <path
     class="cls-6"
     d="m 58.790836,280.10841 c -2.24,0.17 -2.46,-1.7 -3.12,-1.68 -1.18,0.06 -9.77,2.18 -12.72,1.68 -0.2,1.71 -3.84,-0.36 -4.56,0.72 -8.26,-4 -6,15.16 -4.08,17.76 20.92,-1.72 27.08,6.25 24.48,-18.48 z"
     id="path3944"
     inkscape:connector-curvature="0"
     style="fill:none;fill-rule:evenodd;stroke:#1d1d1b;stroke-miterlimit:10" />
  <path
     class="cls-3"
     d="m 186.23084,280.10841 c -0.44,0.09 -4.24,5 -6.24,2.4 -1.81,2.85 -1,4.29 -5,4.08 8.41,3.13 -1.61,15.49 11.52,7.2 5.76,-5.54 -4.97,-3.36 -0.28,-13.68 z"
     id="path3946"
     inkscape:connector-curvature="0"
     style="fill:#6a912d;fill-rule:evenodd;stroke:#1d1d1b;stroke-miterlimit:10" />
  <path
     class="cls-7"
     d="m 62.630836,287.30841 c -2,9.06 5.73,6.28 9.6,4.08 1.93,-1.26 8.24,-0.63 9.84,-2.88 0,0.88 0,1.66 0.48,0 6,-4.92 -6.47,0.86 -5,-5.28 -9.16,-0.34 -8.55,0.2 -14.92,4.08 z"
     id="path3948"
     inkscape:connector-curvature="0"
     style="fill:#008a3b;fill-rule:evenodd;stroke:#1d1d1b;stroke-miterlimit:10" />
  <path
     class="cls-3"
     d="m 199.91084,295.42841 c 29.21,6 20.38,-15.45 3.36,-3.36 -1.11,3.27 0.5,2.6 -3.36,3.36 z"
     id="path3950"
     inkscape:connector-curvature="0"
     style="fill:#6a912d;fill-rule:evenodd;stroke:#1d1d1b;stroke-miterlimit:10" />
  <path
     class="cls-6"
     d="m 192.95084,289.94841 c -2,3 -5,2.8 -5,6.48 4.19,0.27 6.64,-1.38 5,-6.48 z"
     id="path3952"
     inkscape:connector-curvature="0"
     style="fill:none;fill-rule:evenodd;stroke:#1d1d1b;stroke-miterlimit:10" />
  <path
     class="cls-8"
     d="m 245.99084,325.22841 c 7.44,-0.76 33,4.46 25.44,-10.32 0.7,-0.25 0.92,-0.47 0.24,-0.48 -1.65,-1.8 1.07,-8 0.48,-7.92 -1.07,-1.06 1.48,0.13 0.48,-1.2 -1.52,0.23 -0.12,-7.59 -3.36,-7 -64,2.25 -124.9,1.59 -189.840004,3.36 -23.2,0.3 -38.73,0.05 -61.2,0.72 -1.9,-3.46 0.09,7.21 0,9.36 -1,1.16 -3.24,4.45 -1.92,7.2 0.28,0.73 -0.82,7.82 1,8.16 16.81,0 39.23,-0.08 53.76,-0.48 53.700004,-0.12 120.900004,-0.68 174.920004,-1.4 z"
     id="path3954"
     inkscape:connector-curvature="0"
     style="fill:#a68955;fill-rule:evenodd;stroke:#1d1d1b;stroke-miterlimit:10" />
  <path
     class="cls-6"
     d="m 231.11084,329.30841 c -5.72,18.86 14.28,14.95 25.44,12.72 2.52,-18.1 -11.71,-12.14 -25.44,-12.72 z"
     id="path3956"
     inkscape:connector-curvature="0"
     style="fill:none;fill-rule:evenodd;stroke:#1d1d1b;stroke-miterlimit:10" />
  <path
     class="cls-6"
     d="m 42.950836,330.26841 c -9.78,-1.34 -13,7 -8.4,14.64 4.84,-1.85 17.08,0.14 24,-0.48 3.52,-16.84 -4.16,-12.91 -15.6,-14.16 z"
     id="path3958"
     inkscape:connector-curvature="0"
     style="fill:none;fill-rule:evenodd;stroke:#1d1d1b;stroke-miterlimit:10" />
  <path
     class="cls-8"
     d="m 272.87084,346.34841 c -84.88,1.78 -179.770004,1.16 -256.320004,2.16 -3.14,-0.32 1.24,8.13 -1.2,9.36 -2.38,5.63 0.94,10.61 1,14.88 63.4,8.13 147.510004,0.76 218.160004,3.61 37.44,-2.09 41.41,12.33 38.36,-30.01 z"
     id="path3960"
     inkscape:connector-curvature="0"
     style="fill:#a68955;fill-rule:evenodd;stroke:#1d1d1b;stroke-miterlimit:10" />
  <path
     class="cls-8"
     d="m 270.47084,422.90841 c 1.51,-8.81 2.15,-18.16 0,-26.16 -14.86,-1.36 -36,0.56 -51.84,-0.48 -64.35,1 -129.250004,0.86 -199.920004,1 -1.33,6.22 -0.2,4.9 0.72,10.08 0.45,3.61 -1.38,7.45 1.68,10.32 -1,0.66 0.67,0.22 0,1.44 -0.58,0.51 -0.74,0.15 -0.24,1 -8,14.56 62.84,2.6 73.92,5.76 57.520004,-1.2 114.940004,-0.94 175.680004,-2.96 z"
     id="path3962"
     inkscape:connector-curvature="0"
     style="fill:#a68955;fill-rule:evenodd;stroke:#1d1d1b;stroke-miterlimit:10" />
  <path
     class="cls-6"
     d="m 240.23084,426.74841 c -11.21,1.45 -8.8,0.75 -9.12,13.44 6.2,1.52 18.34,-1.55 24.48,1.2 3.44,-19.81 -2.2,-11.74 -15.36,-14.64 z"
     id="path3964"
     inkscape:connector-curvature="0"
     style="fill:none;fill-rule:evenodd;stroke:#1d1d1b;stroke-miterlimit:10" />
  <path
     class="cls-3"
     d="m 227.27084,440.18841 c 1,-9.92 0.23,-15.52 -10.32,-11.28 -3.35,7.92 -13.44,13.18 -19.44,6.24 0,1 -3.19,1.13 -4.32,5.28 11.81,-0.92 21.36,0.44 34.08,-0.24 z"
     id="path3966"
     inkscape:connector-curvature="0"
     style="fill:#6a912d;fill-rule:evenodd;stroke:#1d1d1b;stroke-miterlimit:10" />
  <path
     class="cls-9"
     d="m 212.39084,432.50841 c 8.85,-10.55 -44.82,-0.78 -55,-4.32 -2.37,0.57 -0.15,-0.07 -1.44,2.16 -1.82,1.1 -6.3,7.23 1.68,6 4.57,6.09 22.46,2.3 33.12,4.32 0.79,-1.48 5.09,-8.11 7,-6.48 8.32,-0.59 0.22,7.24 14.64,-1.68 z"
     id="path3968"
     inkscape:connector-curvature="0"
     style="fill:#a5b370;fill-rule:evenodd;stroke:#1d1d1b;stroke-miterlimit:10" />
  <path
     class="cls-2"
     d="m 138.95084,428.42841 c -7.15,2.52 -35.9,-3.16 -20.88,6 0,0.84 1.24,0.17 1.44,1.92 0.81,-0.19 2.95,1.07 2.64,2.16 5.39,2.92 45.41,1.68 32.64,0 -13.94,-0.21 -3.84,-3 -0.72,-9.6 -1.86,-0.39 -12.43,0.7 -15.12,-0.48 z"
     id="path3970"
     inkscape:connector-curvature="0"
     style="fill:#4a671e;fill-rule:evenodd;stroke:#1d1d1b;stroke-miterlimit:10" />
  <path
     class="cls-4"
     d="m 96.470836,436.34841 c 1.44,-8 5.200004,0.1 9.360004,1.68 4.69,-1.35 8.09,1.53 14.16,1 -1.83,-2.34 -7.58,-5.19 -7.2,-7.44 1.48,-0.09 -3.12,-0.36 -1.92,-2.16 -10.57,2.75 -51.360004,-6.7 -48.720004,8.4 1.2,3.75 14.77,2.09 19.44,1 2.09,0.19 3.32,-3 8.16,-4.08 -0.82,0.89 0.81,0.28 2.16,1.44 -0.43,1 2.88,1.73 4.56,0.16 z"
     id="path3972"
     inkscape:connector-curvature="0"
     style="fill:#2d440f;fill-rule:evenodd;stroke:#1d1d1b;stroke-miterlimit:10" />
  <path
     class="cls-6"
     d="m 33.110836,439.42841 c 9.87,-2 29.68,6.52 25.68,-9.12 -7.11,-0.9 -18,0.77 -25,-0.24 -1.59,2.28 -0.19,6.09 -0.68,9.36 z"
     id="path3974"
     inkscape:connector-curvature="0"
     style="fill:none;fill-rule:evenodd;stroke:#1d1d1b;stroke-miterlimit:10" />
  <path
     class="cls-6"
     d="m 98.870836,436.34841 c -4.48,5.25 -0.43,2.39 4.320004,3.6 -1.23,-1.63 -1.02,-1.82 -4.320004,-3.6 z"
     id="path3976"
     inkscape:connector-curvature="0"
     style="fill:none;fill-rule:evenodd;stroke:#1d1d1b;stroke-miterlimit:10" />
  <path
     class="cls-6"
     d="m 88.070836,437.54841 c -1.24,1 -0.92,0.58 -1.2,1.2 -3.23,1.88 4.56,1 4.8,1 0.14,-1.73 -1.88,-1.91 -3.6,-2.2 z"
     id="path3978"
     inkscape:connector-curvature="0"
     style="fill:none;fill-rule:evenodd;stroke:#1d1d1b;stroke-miterlimit:10" />
  <path
     class="cls-6"
     d="m 253.19084,440.66841 c 0.25,0.19 0.07,0.09 0.48,0.24 -0.28,-0.19 -0.07,-0.09 -0.48,-0.24 z"
     id="path3980"
     inkscape:connector-curvature="0"
     style="fill:none;fill-rule:evenodd;stroke:#1d1d1b;stroke-miterlimit:10" />
  <path
     class="cls-8"
     d="m 22.070836,470.42841 c 80.580004,3.58 165.640004,-1.16 247.000004,1 1.81,-25.7 6.16,-29.31 -25.2,-27.12 -25.43,-0.6 -52.33,0.46 -76.56,-0.72 -36.63,0.87 -78.190004,-0.3 -118.080004,0 -32.43,-2.54 -27.02,-0.77 -27.16,26.84 z"
     id="path3982"
     inkscape:connector-curvature="0"
     style="fill:#a68955;fill-rule:evenodd;stroke:#1d1d1b;stroke-miterlimit:10" />
  <path
     class="cls-2"
     d="m 85.510836,378.23841 c -0.82,1.47 -12.26,-0.77 -10.8,3.12 -5.11,5.06 5.56,1.26 6.72,2.4 0.71,4.72 3.05,1.74 4.8,6.24 2,6.6 24.380004,0.81 30.000004,1.93 -2.41,-2.6 -2.42,-4.21 1,-5.77 0.42,0.17 0.42,-0.57 0.24,0 -0.78,-0.13 0.61,-1.64 1.44,-1.68 1,0.56 1.44,-1.4 2.64,0 29.74,-9.68 -27.810004,-3.65 -36.040004,-6.24 z"
     id="path3984"
     inkscape:connector-curvature="0"
     style="fill:#4a671e;fill-rule:evenodd;stroke:#1d1d1b;stroke-miterlimit:10" />
  <path
     class="cls-7"
     d="m 64.870836,381.47841 c -3.7,0.91 -1.1,10.93 -1.69,13.92 4.78,1.18 28,-2.66 18,-5.4 0.31,-0.18 -2.2,-2.95 -1.92,-4.8 -3.18,0.58 -5,1.39 -7.68,1.44 -2.45,-0.58 0.12,-3.48 1.2,-1.68 -1.43,-3 -1,0.26 -1.92,-1 0.61,-0.92 0.75,-3 1.92,-1.92 3.12,-5.17 -3.1,0.8 -7.91,-0.56 z"
     id="path3986"
     inkscape:connector-curvature="0"
     style="fill:#008a3b;fill-rule:evenodd;stroke:#1d1d1b;stroke-miterlimit:10" />
  <path
     class="cls-3"
     d="m 118.15084,395.42841 c 11.2,-1 29.46,-1 35.52,-4 5.9,-1.1 5.58,-4.54 5.52,-5.52 3.36,-2.1 6.74,-4.9 10.32,0 32.1,-13.5 -1.39,11.2 23.52,9.48 11,-2 40.26,1.23 31,-8.52 -4.8,0.39 -9.15,2.6 -12.24,-1 1.22,-13.8 -64.57,-4.87 -80.16,-6.24 2.85,1.09 -5.16,6.61 -7.2,6.72 -0.81,-1 0,0.32 -1.68,0 -0.93,-1 0.11,0.25 -1,0.24 -1.53,-0.4 -2.45,-1.13 -2.64,-0.48 1.12,1.42 -3.08,2.81 -2.88,4.08 1.32,-1.03 2.34,3.24 1.92,5.24 z"
     id="path3988"
     inkscape:connector-curvature="0"
     style="fill:#6a912d;fill-rule:evenodd;stroke:#1d1d1b;stroke-miterlimit:10" />
  <path
     class="cls-10"
     d="m 211.99084,379.42841 c 0.79,14 13.27,1.62 15.36,12.84 4.2,-12.84 -4.96,-12.61 -15.36,-12.84 z"
     id="path3990"
     inkscape:connector-curvature="0"
     style="fill:#8fa82e;fill-rule:evenodd;stroke:#1d1d1b;stroke-miterlimit:10" />
  <path
     class="cls-4"
     d="m 181.51084,383.51841 c -7,1.87 -7.51,1.86 -11.52,5.76 -2.19,-1 -3.06,-5.77 -7.2,-3.12 -1.21,-2.67 -1.15,5.56 -3.12,4.56 -0.35,-1.36 -0.18,-0.3 -0.24,0.48 0.45,-0.16 0.38,-0.6 0.48,0.24 -3.35,-0.14 1,3.78 1.68,4.2 4.12,-2.12 19.63,-1.87 20.4,-4.44 -0.48,-0.22 -0.94,-6.19 -0.48,-7.68 z"
     id="path3992"
     inkscape:connector-curvature="0"
     style="fill:#2d440f;fill-rule:evenodd;stroke:#1d1d1b;stroke-miterlimit:10" />
  <path
     class="cls-2"
     d="m 192.75084,330.06841 c -2.09,3.17 -19.18,-2.14 -21.6,3.36 -1.79,2.87 -3.13,2.27 -4.8,2.64 0.79,-1 -2.69,-0.7 -0.72,-0.48 -3.49,2.31 -2.61,7.54 -5.76,8.4 3.09,2.13 18.63,2.29 22.8,-3.12 6.05,-6.43 10,0.22 16.08,2.4 6.65,0.4 34.52,8 29,-9.12 1.15,-6.71 -3.48,-2.13 -6.48,-2.64 0.9,1.37 -4.25,0.53 -1.92,1.2 a 9.47,9.47 0 0 1 -5,5.76 c -3.38,1.86 -1.84,-4.16 -6.48,-2.64 -1.89,-1.16 -3.12,-1.06 -4.08,-2.4 2.86,-6 -8.8,-0.58 -11.04,-3.36 z"
     id="path3994"
     inkscape:connector-curvature="0"
     style="fill:#4a671e;fill-rule:evenodd;stroke:#1d1d1b;stroke-miterlimit:10" />
  <path
     class="cls-6"
     d="m 213.39084,336.30841 c 13.47,-6.58 -9.61,-8.15 -7.44,-2.4 2.18,-0.54 7.26,-0.23 7.44,2.4 z"
     id="path3996"
     inkscape:connector-curvature="0"
     style="fill:none;fill-rule:evenodd;stroke:#1d1d1b;stroke-miterlimit:10" />
  <path
     class="cls-3"
     d="m 164.19084,330.54841 c -1.7,2.11 -20.65,-1.56 -22.08,1.92 4.08,1.52 -2.58,4.47 1.44,4.32 4.6,-0.5 8,-2.57 7.92,4.08 3.39,-0.86 6.68,3.32 7.68,1.68 1.34,-0.72 3,-8.54 5.76,-8.4 6.07,-0.5 7.18,-3.47 -0.72,-3.6 z"
     id="path3998"
     inkscape:connector-curvature="0"
     style="fill:#6a912d;fill-rule:evenodd;stroke:#1d1d1b;stroke-miterlimit:10" />
  <path
     class="cls-4"
     d="m 75.390836,331.74841 c -16.55,0.22 -11.3,-1.68 -12.72,13.2 3.8,0.63 23.71,3.29 16.32,-3.12 -12.47,0.39 -4.68,-5.16 -3.6,-10.08 z"
     id="path4000"
     inkscape:connector-curvature="0"
     style="fill:#2d440f;fill-rule:evenodd;stroke:#1d1d1b;stroke-miterlimit:10" />
  <path
     class="cls-3"
     d="m 120.75084,341.10841 c 7.89,-1.4 -0.53,-6.9 1.44,-8.88 -5.26,-1.36 -18.38,-2.19 -22.08,1.92 0.92,2.92 1.82,1.45 4.08,1.2 13.12,-3.79 6.97,11.6 16.56,5.76 z"
     id="path4002"
     inkscape:connector-curvature="0"
     style="fill:#6a912d;fill-rule:evenodd;stroke:#1d1d1b;stroke-miterlimit:10" />
  <path
     class="cls-4"
     d="m 148.83084,337.74841 c -18.28,5.13 4.63,-11 -24.72,-6 1,0.68 -0.62,0.62 0.24,1.92 1.47,0 -1.22,1.6 1.2,0.24 2.29,3.76 -0.23,9.38 -5,9.36 -7.89,3.8 27.75,1.14 35.76,1.68 -1,-3.75 -9.13,0.07 -7.48,-7.2 z"
     id="path4004"
     inkscape:connector-curvature="0"
     style="fill:#2d440f;fill-rule:evenodd;stroke:#1d1d1b;stroke-miterlimit:10" />
  <path
     class="cls-2"
     d="m 79.230836,331.50841 c -3.91,1.17 -1.21,1.65 -3.12,2.4 0.49,0.83 0.2,1.74 -0.72,1.68 0.78,1.72 -1.82,2 -1.2,3.36 4.53,1.55 5.92,-0.21 8.64,3.12 -0.18,4 3.42,1.86 6,1.44 -0.41,1 0.79,0.23 -0.24,-0.72 5.19,4.93 13.700004,1.6 27.360004,2.4 -9.45,-5.72 1.94,-8.41 -14.16,-8.16 0,1.64 -3.850004,-0.19 -3.600004,-3.36 3.780004,-4.74 -14.95,0.05 -18.96,-2.16 z"
     id="path4006"
     inkscape:connector-curvature="0"
     style="fill:#4a671e;fill-rule:evenodd;stroke:#1d1d1b;stroke-miterlimit:10" />
  <path
     class="cls-6"
     d="m 194.67084,344.70841 c -1,-3.9 -5.21,-4.3 -7.2,-5.52 -8.99,8.11 -6.81,4.81 7.2,5.52 z"
     id="path4008"
     inkscape:connector-curvature="0"
     style="fill:none;fill-rule:evenodd;stroke:#1d1d1b;stroke-miterlimit:10" />
  <path
     class="cls-8"
     d="m 28.930836,275.73841 q 0.79,102.62 1.6,205.23 a 52.67,52.67 0 0 0 31.87,-0.83 l -0.93,-204.44 a 37.74,37.74 0 0 0 -32.54,0 z"
     id="path4010"
     inkscape:connector-curvature="0"
     style="fill:#a68955;fill-rule:evenodd;stroke:#1d1d1b;stroke-miterlimit:10" />
  <path
     class="cls-4"
     d="m 130.01084,479.36841 c 4,0.92 6.64,-2.44 5,-3.36 0.81,0.55 -0.16,0.38 -0.48,0.48 0.29,0.24 0.35,0.37 0.32,0.45 -0.23,0.55 -5.56,-2 -11.29,-2.23 a 23.44,23.44 0 0 0 -8.71,1.3 c 2,0.25 9.08,-0.08 8.16,5 -4.96,5.59 8.12,-0.21 7,-1.64 z"
     id="path4012"
     inkscape:connector-curvature="0"
     style="fill:#2d440f;fill-rule:evenodd;stroke:#1d1d1b;stroke-miterlimit:10" />
  <path
     class="cls-8"
     d="m 227.97084,271.95841 q 0.75,102.29 1.49,204.58 a 30.35,30.35 0 0 0 29.63,-0.83 l 0.43,-203.95 a 30.88,30.88 0 0 0 -31.55,0.2 z"
     id="path4014"
     inkscape:connector-curvature="0"
     style="fill:#a68955;fill-rule:evenodd;stroke:#1d1d1b;stroke-miterlimit:10" />
  <path
     class="cls-4"
     d="m 66.210836,475.06841 -3.12,0.72 c 0.38,3.6 -1,11.91 0.48,15.12 5.53,-12.43 7.95,-13.59 5.52,2.16 -1.19,0.81 0.89,1.39 -0.72,1.44 1.2,3.78 5,-6.37 6.24,0 -1.4,-1.26 0.09,1.57 -0.48,1.92 1.89,1.11 2.25,-1.92 3.6,-3.6 3.93,-0.7 -1,-5.43 1.68,-6.24 -1.4,0.77 -2.36,0.21 -2.64,-1.44 2.1,-1.75 -6.79,-2.51 -6.48,-5.28 4.75,-6.5 -2.58,-2.51 -4.08,-4.8 z"
     id="path4016"
     inkscape:connector-curvature="0"
     style="fill:#2d440f;fill-rule:evenodd;stroke:#1d1d1b;stroke-miterlimit:10" />
  <path
     class="cls-4"
     d="m 230.24084,481.42841 c 0,2.09 -0.8,7.14 0.24,7.67 1,-1.38 2.93,-5.24 4.8,-1.88 -0.79,1.09 -1.33,-0.94 -1.44,0.94 2.24,-1.24 -0.7,2.53 0.72,2.51 3.26,-2 10.4,-13.7 7.92,-2.35 -2,0 1.42,3 1.44,4.7 2.5,-1.4 4.62,-7.43 6.48,-0.32 1.55,-1 -1.47,-7.2 1.44,-7.83 -0.77,1 0,-0.16 1,0.16 a 12,12 0 0 0 2.4,4.07 72.55,72.55 0 0 0 0,-8 c -9.26,0.41 -17.18,-0.06 -25,0.33 z"
     id="path4018"
     inkscape:connector-curvature="0"
     style="fill:#2d440f;fill-rule:evenodd;stroke:#1d1d1b;stroke-miterlimit:10" />
  <path
     class="cls-4"
     d="m 195.65084,480.75841 c 2,3 2.65,-5.91 7.7,-2.16 -0.51,0.36 -0.69,0.52 -0.66,0.58 a 3.21,3.21 0 0 0 2.61,-0.55 c 1.15,-0.74 1,-1.58 2.19,-2.46 a 6.43,6.43 0 0 1 2.35,-0.93 c 0,-0.91 -48.58,2.75 -64.7,0 0,0 -7.24,-1.19 -8.34,1 -0.65,1.27 2.18,3.53 -2.72,5.76 -3,-0.43 -6.14,2.59 -7.46,3.6 -5.18,1.94 -16,-0.19 -8.66,-2.64 7.6,-5.65 -7.64,-2.05 -6.25,-8.16 -5.64,1.64 -21.340004,0 -28.140004,0.72 -1.4,-1 -11.51,1.32 -10.1,-0.48 -1.31,-0.65 -2.75,6 -1.93,5 0.8,-1.35 5.95,1.61 5.54,4.33 0.51,0.05 1.84,1.48 2.64,3.36 0.93,-1.12 2.15,-1.48 2.89,-0.48 0.37,2.52 -4.23,7.93 -1.44,7.44 -0.08,-0.16 3.77,-7.58 3.84,-5 -0.3,-1.51 0.5,-2.21 2.17,-3.36 -1.85,0.34 2.58,-6.65 3.61,-5.52 0.66,1.34 0.49,2.5 -0.72,3.12 1,0.08 0.14,1.47 -0.49,1.68 0.81,0 -0.23,4.31 -1.44,3.12 1.33,1.13 0.26,1.35 -0.24,2.64 1.83,1.3 -1.16,2.91 1.44,3.6 -0.42,-1.18 3,-6.93 4.09,-4.32 1.45,18.62 4.78,-9.51 6.49,-7.2 2.540004,2.79 0.690004,7.9 2.650004,11.52 3.44,-3.48 0.82,-14.11 4.57,-12.24 1.46,14 3,-0.46 4.09,10.32 3,-3.83 3.71,-2.66 4.09,0.24 2.64,-2.89 3.55,0.77 3.37,2.88 2.35,-2.38 4.17,-3.33 6.73,-3.12 -0.22,-0.61 0.9,-3 3.13,0.24 -0.32,-2.45 0.41,-9.38 2.64,-9.61 1.74,1.72 1.37,11.8 4.33,7.69 -0.16,-3 2.23,0.41 2.89,2.16 3.08,-0.87 1.16,1.41 2.4,2.16 0.46,1.33 4.81,-5.06 5.29,-2.16 0.39,0.27 2.72,-5.5 2.41,-6 1.66,-2.13 1.84,-12.85 4.09,-6 -1.29,-0.42 0.67,1.14 -1,2.16 1.37,-1.46 0.87,3.24 0.24,1.44 0.55,-0.2 0,-0.27 -0.24,0 0.9,0.38 1,4.69 1.44,1.92 1.22,0.11 2.6,-9.58 3.37,-6.24 4.21,-3 -0.88,10.14 1,11.76 0.85,-1.36 -0.44,-4.15 2.4,-4.08 0.8,1.82 0.9,4.63 2.17,2.4 1.35,-4 3,2.88 3.85,3.12 0.29,-2.74 2.45,-4.82 1.44,-4.8 0.25,-3.08 -0.52,-8.56 1.44,-8.16 1.33,1.08 0.74,3.37 2.41,5.52 0.89,0.16 0.26,-2.75 1.68,-1 0.76,-4.15 6.89,-10.15 10.82,-6 1.41,3.64 6.94,-5 12.03,1.19 z"
     id="path4020"
     inkscape:connector-curvature="0"
     style="fill:#2d440f;fill-rule:evenodd;stroke:#1d1d1b;stroke-miterlimit:10" />
  <path
     class="cls-4"
     d="m 33.200836,483.64841 c -2,1.08 -1.83,8.73 0.24,8.87 -0.84,-0.11 4.11,-5.69 7,-4.44 1.29,1.25 -1.89,3.91 -1.92,4.17 6,-1.18 2.1,4.58 7,0.81 -0.34,-0.72 1.79,-1.31 2.64,-0.14 0.17,0.28 0,1.33 0.72,0.81 2.27,-1.45 -0.14,-5.94 3.36,-6.86 1.66,0.71 1.08,3.9 2.16,3.9 6.91,0.34 3.09,-1.86 3.36,-7 -7.31,0.11 -17.46,0.43 -24.56,-0.12 z"
     id="path4022"
     inkscape:connector-curvature="0"
     style="fill:#2d440f;fill-rule:evenodd;stroke:#1d1d1b;stroke-miterlimit:10" />
  <path
     class="cls-4"
     d="m 197.39084,482.91841 c 1.45,0.23 6.27,3 5.52,3.6 5.41,-9.77 3.31,6.14 7.44,5.28 0.4,0.8 -0.09,-0.94 0.24,-1.44 0.94,-0.11 0.3,0 0.72,-1 5,2.73 2.49,-11.36 5.52,-7.45 2.06,-0.08 0.53,1.67 0.48,2.17 0.78,0 1.11,3.2 1.68,4.32 0.48,-0.3 0.69,1.28 1.2,1 a 18.51,18.51 0 0 0 0.48,-6 c 0.82,-12.67 3.53,0.73 4.32,4.32 3.51,2.53 2.65,-12.23 1.44,-12.48 -2.12,-0.44 -8.13,0.58 -14.4,1.92 a 1.6,1.6 0 0 0 -0.83,2.49 c 0.24,0.44 -2.83,-0.13 -2.56,0.34 -2.31,4.9 -11.17,-1.82 -11.25,2.93 z"
     id="path4024"
     inkscape:connector-curvature="0"
     style="fill:#2d440f;fill-rule:evenodd;stroke:#1d1d1b;stroke-miterlimit:10" />
  <path
     class="cls-4"
     d="m 179.60084,480.03841 c -4.56,3.1 -11.09,9.24 -5,14.4 -0.79,-9.62 4.32,-6.32 3.84,-1 4.45,2.89 1.86,-4 5.52,-3.13 1.52,0.19 0.52,3.83 2.16,2.89 1.95,-2.46 4.83,-4 5.28,0.48 4.24,-5.8 2.92,0.53 5.28,-0.24 1.72,1.64 4.11,-2.6 5.28,0 5.94,-4.34 -3.3,-7.32 -4.08,-8.4 -3.16,0.56 -3.6,-4.47 -7.2,-4.56 -3.12,0 -3.73,2 -5.52,2.4 0.14,-0.62 0.07,-0.43 -0.48,-0.24 0.21,0.36 0.68,0.17 0.24,0.48 -3.14,1.19 -2.02,-4.11 -5.32,-3.08 z"
     id="path4026"
     inkscape:connector-curvature="0"
     style="fill:#2d440f;fill-rule:evenodd;stroke:#1d1d1b;stroke-miterlimit:10" />
  <path
     class="cls-11"
     d="m 243.59084,303.42841 c 1.23,0.21 3.34,1.18 2.16,2.16 0.27,3.56 -5.71,0.65 -2.16,-2.16 z"
     id="path4028"
     inkscape:connector-curvature="0"
     style="fill:#1d1d1b;fill-rule:evenodd;stroke:#1d1d1b;stroke-miterlimit:10" />
  <path
     class="cls-11"
     d="m 243.59084,313.94841 c 2.47,-0.31 3.62,2.48 1.44,3.6 -2.56,0.71 -3.48,-2.06 -1.44,-3.6 z"
     id="path4030"
     inkscape:connector-curvature="0"
     style="fill:#1d1d1b;fill-rule:evenodd;stroke:#1d1d1b;stroke-miterlimit:10" />
  <path
     class="cls-11"
     d="m 243.59084,367.70841 c 3.24,-0.23 3.63,3.9 0,4.08 -1.68,-1.57 -1.15,-2.49 0,-4.08 z"
     id="path4032"
     inkscape:connector-curvature="0"
     style="fill:#1d1d1b;fill-rule:evenodd;stroke:#1d1d1b;stroke-miterlimit:10" />
  <path
     class="cls-11"
     d="m 242.63084,450.02841 c 2.64,-0.71 3.78,4.06 0.48,3.6 0.04,0.39 -3.45,-1.53 -0.48,-3.6 z"
     id="path4034"
     inkscape:connector-curvature="0"
     style="fill:#1d1d1b;fill-rule:evenodd;stroke:#1d1d1b;stroke-miterlimit:10" />
  <path
     class="cls-11"
     d="m 242.63084,460.58841 c 1.16,-0.19 4.51,1.61 1.2,3.6 0.45,-1.09 -0.32,0.26 -1.2,0.24 a 2.25,2.25 0 0 1 0,-3.84 z"
     id="path4036"
     inkscape:connector-curvature="0"
     style="fill:#1d1d1b;fill-rule:evenodd;stroke:#1d1d1b;stroke-miterlimit:10" />
  <path
     class="cls-11"
     d="m 243.59084,403.42841 c 0.8,0.3 4.15,0.92 1.68,2.88 2.75,1.26 -6.6,0.54 -1.68,-2.88 z"
     id="path4038"
     inkscape:connector-curvature="0"
     style="fill:#1d1d1b;fill-rule:evenodd;stroke:#1d1d1b;stroke-miterlimit:10" />
  <path
     class="cls-11"
     d="m 243.59084,414.50841 c 6.41,0 -1,7.56 -1.2,1.2 0.23,-1.16 2.92,0.02 1.2,-1.2 z"
     id="path4040"
     inkscape:connector-curvature="0"
     style="fill:#1d1d1b;fill-rule:evenodd;stroke:#1d1d1b;stroke-miterlimit:10" />
  <path
     class="cls-11"
     d="m 44.490836,317.98841 c 4.59,0.3 0.42,5.89 -1,3.12 2.1,-1.32 -1.78,0.66 -0.48,-2.4 1.62,-1.4 0.58,2.79 1.48,-0.72 z"
     id="path4042"
     inkscape:connector-curvature="0"
     style="fill:#1d1d1b;fill-rule:evenodd;stroke:#1d1d1b;stroke-miterlimit:10" />
  <path
     class="cls-11"
     d="m 44.970836,405.02841 c 2.39,-0.11 3.33,2.27 1.92,2.64 -0.71,3.43 -5.1,-1.37 -1.92,-2.64 z"
     id="path4044"
     inkscape:connector-curvature="0"
     style="fill:#1d1d1b;fill-rule:evenodd;stroke:#1d1d1b;stroke-miterlimit:10" />
  <path
     class="cls-11"
     d="m 44.510836,308.16841 a 1.91,1.91 0 0 1 1.44,3.36 c -2.39,1.53 -4.51,-2.17 -1.44,-3.36 z"
     id="path4046"
     inkscape:connector-curvature="0"
     style="fill:#1d1d1b;fill-rule:evenodd;stroke:#1d1d1b;stroke-miterlimit:10" />
  <path
     class="cls-11"
     d="m 44.390836,353.22841 c 4.3,-1 2.15,5.85 -0.48,3.13 0.28,-1.24 -1.97,-1.22 0.48,-3.13 z"
     id="path4048"
     inkscape:connector-curvature="0"
     style="fill:#1d1d1b;fill-rule:evenodd;stroke:#1d1d1b;stroke-miterlimit:10" />
  <path
     class="cls-11"
     d="m 45.390836,364.84841 c 3,0.9 1.4,4.13 -1,3.84 -1.59,-1.78 -1.33,-2.98 1,-3.84 z"
     id="path4050"
     inkscape:connector-curvature="0"
     style="fill:#1d1d1b;fill-rule:evenodd;stroke:#1d1d1b;stroke-miterlimit:10" />
  <path
     class="cls-11"
     d="m 45.910836,416.64841 c 2.35,-0.86 3.53,4.91 -0.48,3.6 -2.76,-0.9 -1.82,-2.93 0.48,-3.6 z"
     id="path4052"
     inkscape:connector-curvature="0"
     style="fill:#1d1d1b;fill-rule:evenodd;stroke:#1d1d1b;stroke-miterlimit:10" />
  <path
     class="cls-11"
     d="m 46.500836,449.42841 c 2.69,0 2.84,4 -0.48,3.84 -1.22,-1.45 -1.71,-2.84 0.48,-3.84 z"
     id="path4054"
     inkscape:connector-curvature="0"
     style="fill:#1d1d1b;fill-rule:evenodd;stroke:#1d1d1b;stroke-miterlimit:10" />
  <path
     class="cls-11"
     d="m 46.040836,460.21841 c 5.29,0.21 1.33,6.36 -1.2,2.64 a 7.82,7.82 0 0 1 1.2,-2.64 z"
     id="path4056"
     inkscape:connector-curvature="0"
     style="fill:#1d1d1b;fill-rule:evenodd;stroke:#1d1d1b;stroke-miterlimit:10" />
  <path
     class="cls-11"
     d="m 243.58084,356.94841 a 2.25,2.25 0 0 1 2.57,2.18 2.19,2.19 0 0 1 -2.57,1.9 c -0.89,-0.33 -1.05,-1.63 -1.06,-1.75 -0.13,-0.85 0.25,-2.06 1.06,-2.33 z"
     id="path4058"
     inkscape:connector-curvature="0"
     style="fill:#1d1d1b;fill-rule:evenodd;stroke:#1d1d1b;stroke-miterlimit:10" />
  <text
     x="-108.60916"
     y="-3.5715923"
     id="text4060" />
  <path
     class="cls-12"
     d="m 257.39084,108.79841 c 0,17.33 -2.72,32 -8.38,46.23 -3.5,8.75 -7.69,17.13 -13.56,24.53 -4.51,5.69 -9.3,11.18 -14.23,16.53 -8,8.71 -16.26,17.23 -24.4,25.83 l -15.53,16.41 q -8.25,8.73 -16.51,17.44 c -1,1.1 -1.88,2.39 -3,3.39 a 13.66,13.66 0 0 1 -19.87,-2.11 22.32,22.32 0 0 0 -2,-2.38 c -7,-7.37 -14.08,-14.7 -21.1,-22.07 -5.19,-5.45 -10.32,-10.94 -15.49,-16.41 -5.430004,-5.77 -10.920004,-11.49 -16.320004,-17.29 -4,-4.27 -8,-8.54 -11.73,-13 a 110.05,110.05 0 0 1 -19.81,-34.64 119.17,119.17 0 0 1 -6.51,-50.45 c 1.28,-15.870002 5.38,-30.930002 13.29,-44.790002 a 188.65,188.65 0 0 1 10.83,-16.39 75.32,75.32 0 0 1 17.17,-17 c 3.56,-2.56 7.17,-5 10.790004,-7.51 6.54,-4.48 13.94,-7.0000003 21.33,-9.6700003 a 88.9,88.9 0 0 1 38.36,-4.47999999 95.6,95.6 0 0 1 18.48,3.05999999 148.83,148.83 0 0 1 21.19,8.3400003 76.67,76.67 0 0 1 13.15,8.32 106.52,106.52 0 0 1 24.15,25.15 110.58,110.58 0 0 1 15.1,32 c 3.08,10.79 4.76,21.79 4.6,30.960002 z m -11.56,-2.18 c -0.57,-4 -1.26,-11.920002 -2.89,-19.660002 -3.21,-15.31 -10.22,-28.94 -20.11,-41 a 91.93,91.93 0 0 0 -18.52,-17 99.15,99.15 0 0 0 -13.88,-8 c -11,-5.29 -22.92,-7 -34.9,-8.22 -3.35,-0.33 -6.81,0.44 -10.22,0.77 -11.31,1.09 -22.16,3.57 -32.36,9 a 98,98 0 0 0 -23.600004,17 96.06,96.06 0 0 0 -13.25,16.39 99.33,99.33 0 0 0 -15.52,47.450002 106.66,106.66 0 0 0 6.91,46.26 102.88,102.88 0 0 0 20.23,32.42 c 5.37,5.93 11,11.64 16.470004,17.46 l 15.32,16.24 c 5.5,5.82 11,11.61 16.51,17.43 q 7.42,7.86 14.8,15.74 c 1.68,1.79 2.69,1.8 4.36,0 q 9,-9.67 17.95,-19.33 7.37,-7.89 14.8,-15.73 8.21,-8.74 16.46,-17.41 c 5.21,-5.53 10.43,-11.06 15.6,-16.63 a 94,94 0 0 0 16.16,-24.88 c 6.52,-14.13 9.38,-28.95 9.64,-48.3 z"
     id="path4062"
     inkscape:connector-curvature="0"
     style="fill:#ac5734;stroke:#993415;stroke-miterlimit:10" />
  <path
     class="cls-13"
     d="m 245.57084,107.05841 c -0.27,19.36 -3.13,34.18 -9.63,48.26 a 94.23,94.23 0 0 1 -16.16,24.87 c -5.17,5.58 -10.39,11.1 -15.6,16.63 -5.49,5.83 -11,11.62 -16.51,17.44 q -7.41,7.84 -14.8,15.73 -9,9.63 -18,19.32 c -1.67,1.81 -2.69,1.81 -4.36,0 q -7.38,-7.89 -14.8,-15.73 -8.25,-8.73 -16.51,-17.44 -7.67,-8.1 -15.32,-16.23 c -5.490004,-5.81 -11.050004,-11.48 -16.420004,-17.48 a 102.47,102.47 0 0 1 -20.23,-32.42 106.61,106.61 0 0 1 -6.91,-46.25 99.35,99.35 0 0 1 15.51,-47.460002 97,97 0 0 1 13.25,-16.37 98.48,98.48 0 0 1 23.610004,-17 c 10.2,-5.4 21,-7.88 32.36,-9 3.4,-0.33 6.87,-1.1 10.22,-0.77 12,1.19 23.91,2.93 34.9,8.22 a 99.09,99.09 0 0 1 13.88,8 92.17,92.17 0 0 1 18.51,17 c 9.89,12.07 16.91,25.7 20.12,41 1.62,7.76 2.32,15.690002 2.89,19.680002 z m -40.05,3.08 c -0.24,-2 -0.46,-5.72 -1.14,-9.33 -3,-16.100002 -11.51,-28.800002 -25.32,-37.470002 -15.88,-10 -39.39,-9.55 -54.87,1.63 -8.19,5.91 -14.59,13.11 -18.61,22.17 a 67.77,67.77 0 0 0 -4.87,16.750002 55.46,55.46 0 0 0 5.87,34.75 52.35,52.35 0 0 0 31.13,26.79 46.62,46.62 0 0 0 34.22,-1.65 54.17,54.17 0 0 0 21.73,-16.82 c 8,-10.39 11.61,-22.17 11.86,-36.82 z"
     id="path4064"
     inkscape:connector-curvature="0"
     style="fill:#993415;stroke:#993415;stroke-miterlimit:10" />
  <path
     class="cls-14"
     d="m 205.74084,109.68841 c -0.24,14.66 -3.86,26.44 -11.86,36.82 a 54.11,54.11 0 0 1 -21.73,16.83 46.57,46.57 0 0 1 -34.22,1.64 52.33,52.33 0 0 1 -31.13,-26.78 55.54,55.54 0 0 1 -5.87,-34.77 67.25,67.25 0 0 1 4.88,-16.750002 c 4,-9.06 10.41,-16.26 18.6,-22.17 15.49,-11.18 39,-11.59 54.87,-1.63 13.81,8.67 22.29,21.37 25.33,37.470002 0.68,3.63 0.9,7.33 1.13,9.34 z m -52.35,45.05 c 14.33,-0.7 24.69,-6.47 32.32,-17.23 7.63,-10.76 9.92,-22.66 7.3,-35.45 -2.92,-14.260002 -11.11,-24.930002 -24.31,-30.800002 -12.14,-5.41 -24.57,-4.81 -36,2.65 a 55.27,55.27 0 0 0 -8.82,7.27 c -7.21,7.22 -10.8,16.18 -11.6,26.260002 -1.36,17.25 5.17,31 19.16,41 6.76,4.87 14.78,6.48 21.95,6.3 z"
     id="path4066"
     inkscape:connector-curvature="0"
     style="fill:#ac5734" />
  <path
     class="cls-15"
     d="m 153.39084,154.73841 c -7.2,0.18 -15.22,-1.43 -22,-6.27 -14,-10 -20.52,-23.78 -19.16,-41 0.8,-10.080002 4.39,-19.000002 11.6,-26.260002 a 55.27,55.27 0 0 1 8.82,-7.27 c 11.47,-7.46 23.9,-8.06 36,-2.65 13.2,5.87 21.39,16.54 24.31,30.800002 2.62,12.79 0.31,24.69 -7.3,35.45 -7.61,10.76 -17.91,16.5 -32.27,17.2 z"
     id="path4068"
     inkscape:connector-curvature="0"
     style="fill:none" />
  <path
     class="cls-4"
     d="m 227.27084,295.42841 c 0.77,-5.81 0.17,-13.56 -6.72,-15.12 -3.19,4.73 -2.81,0.38 -5.76,0.48 0.53,-0.79 -9.2,0.17 -5,-2.4 -2.38,1.08 0.15,-5.08 -3.12,-6 0.26,1.7 -2.4,0.73 -3.12,1.92 1.23,-3.37 -3.67,6.65 -4.8,1.92 -1.79,0.14 1.66,2 -0.48,1.68 -9.74,-1.8 3,-8.74 -7.2,-7.44 -2.14,0.23 -1.55,-2.79 -2.64,-5 -4.08,-1.16 -5.24,2.16 -9.84,1.2 -1.9,-2.08 -4.75,-2.21 -8.16,-0.24 -3.64,0.26 -3.05,-1.71 -5.76,0.24 -4,1 -4.92,-6.69 -4.08,-6 -2.1,-2.88 -3.56,-1.82 -5.52,-4.56 -0.86,-2.06 -11.71,0.65 -15.6,3.6 0.89,-1.7 -0.43,-0.61 -0.72,0.24 -3.22,-1.87 -4,2.56 -6.24,1.92 0.06,-5.83 9,-2.43 10.08,-8.64 -15.49,-7.78 -14,3.18 -19.92,6.48 -5.33,9.26 -14,-6.23 -11.76,7.68 -0.62,1.75 -1.65,4.24 -1.68,6 -1,0.68 -1.58,-0.93 -0.72,0.72 -11.000004,3.11 -0.82,22 -13.000004,7 a 7.21,7.21 0 0 1 -4.32,4.56 c 0.44,0.22 3.41,0.54 2.88,1.44 1.47,-0.25 2.38,1.15 1.2,1.68 1.56,-1.09 2.73,0.86 1.2,2.64 1.38,0.73 5.650004,2.37 4.320004,3.84 0.72,1.32 -0.05,2.3 -1.440004,1.68 -0.75,-3.64 -7.36,-1.53 -4.56,-7.2 -1.35,-1.7 -6.62,-2.55 -4.08,-4.8 -0.37,-1.12 1.65,-1.43 4.08,-4.32 3.09,0.8 -1.45,-4.17 0.72,-5.52 -0.34,-0.05 0.1,0.2 -0.24,0.24 -0.8,0.05 0.77,-1.13 -0.24,-1.2 0.21,1.37 -0.62,-0.76 0,-1.92 0.85,-0.64 4.17,-8.28 5.000004,-6.24 0,-0.94 -0.180004,-1.52 -1.440004,-1 -0.07,2.12 -1.86,1.86 -3.84,1.92 -4.5,2.62 -0.44,8.24 -8.88,7.44 -20.42,13.43 8.14,6.92 -0.48,14.4 -3.79,5.89 -13,3.93 -15.6,7.68 -29,1.73 57.130004,1.21 62.880004,0.48 1,-4.05 6.77,-1.57 7.44,-1.92 1.82,-4.93 22.58,-7.52 15.12,-3.12 -2.31,-0.87 -7.69,-0.45 -6.24,0.24 -0.31,1.84 -5.5,1.95 -6.24,2.88 0.24,4.81 24.12,-0.37 31.2,1.92 0.25,0.66 2.55,-3.17 2.4,-4.08 0.33,-6.28 -9.31,0.71 -11.28,-5.28 -1.05,-1 -0.26,-6.27 1.68,-6 -0.4,-2.74 3.84,-3.75 7.2,-3.84 2.31,-1.81 -1.87,0.2 -0.72,-1.92 -11.41,-5.27 1.07,-4.84 4.56,1 0.61,-0.95 6.93,-5.7 9.84,-2.64 9.12,2.26 -9.15,13.87 7.2,14.16 1.43,1.61 0.24,6.17 5,5.28 -0.7,-1.24 0.78,0.16 0.48,-0.48 0.39,-1.73 0.58,-0.8 0.72,-1.92 0.26,0.87 0.59,0.21 1,-0.24 -0.61,0.1 -0.7,0.62 -1,-0.24 0.34,1.18 4.17,-6.27 7.44,-3.36 -0.86,0.8 -0.12,0.19 0.48,0.24 -2.77,-0.39 6.43,-3.36 7.68,-0.72 a 6.91,6.91 0 0 1 4.56,6.24 c 3.2,-0.03 2.71,1.5 6.08,2.32 z"
     id="path4070"
     inkscape:connector-curvature="0"
     style="fill:#2d440f;fill-rule:evenodd;stroke:#1d1d1b;stroke-miterlimit:10" />
  <path
     class="cls-5"
     d="m 118.55084,274.82841 c -17.48,22.91 19.28,13 7.2,11.76 -0.57,-4.08 -5.42,-3.6 -2.4,-8.16 -3.12,2.81 -3.89,-0.25 -4.8,-3.6 z"
     id="path4072"
     inkscape:connector-curvature="0"
     style="fill:#607849;fill-rule:evenodd;stroke:#1d1d1b;stroke-miterlimit:10" />
  <path
     class="cls-7"
     d="m 148.55084,269.54841 c -2.26,2.82 -3.3,2.22 -5.76,1.44 1,0.62 -0.56,0.7 -0.24,2.88 1.24,0.53 0.56,3.86 -1.68,3.12 -1.09,1 -1.45,2.11 -2.64,1.68 0.79,0.61 0.15,0.34 -0.24,0.48 0.51,0.83 0.08,0.45 -0.48,1 15.68,13.2 16.58,-12.01 11.04,-10.6 z"
     id="path4074"
     inkscape:connector-curvature="0"
     style="fill:#008a3b;fill-rule:evenodd;stroke:#1d1d1b;stroke-miterlimit:10" />
</svg>
